Grown Ups (2010) 1080p MKV X264 AC3+DTS NLSubs-DMT

PLOT

After their high school basketball coach passes away, 
five good friends and former teammates reunite for a Fourth of July holiday weekend. 
 
http://www.youtube.com/watch?v=jr5b4KTH2Eo

MM:    http://www.moviemeter.nl/film/61551

IMDB:    http://www.imdb.com/title/tt1375670/

INFO

Source..: 1080p
Format..: X264
Video...: 1920 x 1040 23.98 Fps
Audio 1.: DTS 6ch 48 Khz 1.54 Mbps
Audio 2.: AC3 640
Subs....: Dutch
Playtime: 102 Minutes

Enjoy

PLAYER INFO

General
Complete name                    : Grown.Ups.2010.1080p.MKV.X264.AC3.DTS.NLSubs-DMT.mkv
Format                           : Matroska
File size                        : 10.1 GiB
Duration                         : 1h 42mn
Overall bit rate                 : 14.2 Mbps
Encoded date                     : UTC 2010-10-20 19:21:03
Writing application              : mkvmerge v4.3.0 ('Escape from the Island') built on Sep  5 2010 10:30:51
Writing library                  : libebml v1.0.0 + libmatroska v1.0.0

Video
ID                               : 1
Format                           : AVC
Format/Info                      : Advanced Video Codec
Format profile                   : High@L4.1
Format settings, CABAC           : Yes
Format settings, ReFrames        : 4 frames
Muxing mode                      : Container profile=Unknown@4.1
Codec ID                         : V_MPEG4/ISO/AVC
Duration                         : 1h 42mn
Bit rate                         : 12.0 Mbps
Width                            : 1 920 pixels
Height                           : 1 040 pixels
Display aspect ratio             : 16:9
Frame rate                       : 23.976 fps
Color space                      : YUV
Chroma subsampling               : 4:2:0
Bit depth                        : 8 bits
Scan type                        : Progressive
Bits/(Pixel*Frame)               : 0.251
Stream size                      : 8.38 GiB (83%)
Title                            : Grown.Ups.2010
Writing library                  : x264 core 102 r1666 d058f37
Encoding settings                : cabac=1 / ref=4 / deblock=1:-3:-3 / analyse=0x3:0x113 / 
me=umh / subme=9 / psy=1 / psy_rd=1.10:0.15 / mixed_ref=1 / me_range=32 / chroma_me=1 / 
trellis=2 / 8x8dct=1 / cqm=2 / deadzone=21,11 / fast_pskip=0 / chroma_qp_offset=-2 / 
threads=12 / sliced_threads=0 / nr=0 / decimate=1 / interlaced=0 / constrained_intra=0 / 
bframes=6 / b_pyramid=2 / b_adapt=2 / b_bias=0 / direct=3 / weightb=1 / open_gop=0 / 
weightp=2 / keyint=250 / keyint_min=25 / scenecut=40 / intra_refresh=0 / rc_lookahead=50 / 
rc=2pass / mbtree=1 / bitrate=12000 / ratetol=2.0 / qcomp=0.70 / qpmin=10 / qpmax=51 / 
qpstep=4 / cplxblur=20.0 / qblur=0.5 / vbv_maxrate=50000 / vbv_bufsize=50000 / 
ip_ratio=1.40 / aq=1:0.80 / nal_hrd=none
Language                         : English

Audio #1
ID                               : 2
Format                           : DTS
Format/Info                      : Digital Theater Systems
Muxing mode                      : Header stripping
Codec ID                         : A_DTS
Duration                         : 1h 42mn
Bit rate mode                    : Constant
Bit rate                         : 1 510 Kbps
Channel(s)                       : 6 channels
Channel positions                : Front: L C R, Side: L R, LFE
Sampling rate                    : 48.0 KHz
Bit depth                        : 24 bits
Stream size                      : 1.08 GiB (11%)
Title                            : DTS-HD MA CORE 1536K
Language                         : English

Audio #2
ID                               : 4
Format                           : AC-3
Format/Info                      : Audio Coding 3
Mode extension                   : CM (complete main)
Muxing mode                      : Header stripping
Codec ID                         : A_AC3
Duration                         : 1h 42mn
Bit rate mode                    : Constant
Bit rate                         : 640 Kbps
Channel(s)                       : 6 channels
Channel positions                : Front: L C R, Side: L R, LFE
Sampling rate                    : 48.0 KHz
Bit depth                        : 16 bits
Stream size                      : 468 MiB (5%)
Title                            : AC3 640
Language                         : English

Text
ID                               : 3
Format                           : UTF-8
Codec ID                         : S_TEXT/UTF8
Codec ID/Info                    : UTF-8 Plain Text
Language                         : Dutch

